<svg xmlns="http://www.w3.org/2000/svg" viewBox="0 0 900 390" width="900" height="390">
	<defs>
		<clipPath clipPathUnits="userSpaceOnUse" id="cp1">
			<path d="M-26 -20L926 -20L926 410L-26 410Z" />
		</clipPath>
	</defs>
	<style>
		tspan { white-space:pre }
		.shp0 { fill: #003b72 } 
		.shp1 { fill: #ffc734 } 
	</style>
	<g id="Page 1" clip-path="url(#cp1)">
		<path id="Path 1" class="shp0" d="M128.16 146.3L128.16 160.27L20.64 160.27L20.64 0.24L126.13 0.24L126.13 14.21L36.42 14.21L36.42 71.92L114.63 71.92L114.63 85.21L36.42 85.21L36.42 146.3L128.16 146.3ZM222.82 147.2C232.89 147.2 241.27 145.28 247.96 141.45C254.64 137.62 259.98 132.59 263.96 126.35C267.94 120.12 270.72 113.02 272.3 105.05C273.88 97.09 274.67 89.05 274.67 80.93L274.67 0.24L290.45 0.24L290.45 80.93C290.45 91.75 289.24 102.01 286.84 111.7C284.43 121.39 280.56 129.92 275.23 137.28C269.89 144.65 262.95 150.51 254.38 154.86C245.82 159.22 235.37 161.4 223.05 161.4C210.43 161.4 199.79 159.11 191.16 154.53C182.51 149.94 175.56 143.9 170.31 136.38C165.04 128.87 161.29 120.3 159.03 110.69C156.78 101.07 155.65 91.15 155.65 80.93L155.65 0.24L171.21 0.24L171.21 80.93C171.21 89.35 172.03 97.54 173.69 105.5C175.34 113.47 178.16 120.53 182.14 126.69C186.12 132.85 191.42 137.81 198.03 141.57C204.64 145.32 212.91 147.2 222.82 147.2Z" />
		<path id="Path 2" fill-rule="evenodd" class="shp1" d="M378.35 188.9L378.35 155.31L312.53 155.31L312.53 128.49L388.04 31.57L408.55 31.57L408.55 128.27L428.39 128.27L428.39 155.31L408.55 155.31L408.55 188.9L378.35 188.9ZM342.74 128.27L381.73 128.27L381.73 77.32L342.74 128.27Z" />
		<path id="Path 3" fill-rule="evenodd" class="shp0" d="M456.79 160.27L456.79 0.24L523.06 0.24C529.97 0.24 536.32 1.7 542.1 4.63C547.89 7.56 552.88 11.39 557.09 16.13C561.3 20.86 564.61 26.24 567.01 32.24C569.41 38.26 570.62 44.34 570.62 50.5C570.62 57.12 569.49 63.46 567.24 69.55C564.98 75.63 561.83 81.01 557.77 85.66C553.71 90.32 548.86 94.08 543.23 96.93C537.6 99.79 531.32 101.22 524.41 101.22L472.57 101.22L472.57 160.27L456.79 160.27ZM472.57 87.24L523.73 87.24C528.39 87.24 532.64 86.23 536.47 84.2C540.3 82.17 543.57 79.47 546.27 76.08C548.98 72.7 551.08 68.8 552.59 64.36C554.09 59.93 554.84 55.31 554.84 50.5C554.84 45.54 553.97 40.85 552.25 36.41C550.52 31.98 548.19 28.11 545.26 24.81C542.33 21.5 538.87 18.91 534.89 17.03C530.91 15.15 526.74 14.21 522.38 14.21L472.57 14.21L472.57 87.24ZM596.99 160.27L596.99 0.24L702.03 0.24L702.03 14.21L612.77 14.21L612.77 73.04L688.05 73.04L688.05 86.12L612.77 86.12L612.77 160.27L596.99 160.27ZM871.53 160.27L871.53 28.86L813.15 130.52L803.91 130.52L745.53 28.86L745.53 160.27L729.75 160.27L729.75 0.24L745.98 0.24L808.42 109.78L871.3 0.24L887.31 0.24L887.31 160.27L871.53 160.27Z" />
		<path id="Path 4" class="shp1" d="M887.31 178.06L429.91 178.06L429.91 175.06L887.31 175.06L887.31 178.06ZM364.92 178.06L19.92 178.06L19.92 175.06L364.92 175.06L364.92 178.06Z" />
		<path id="Path 5" fill-rule="evenodd" class="shp0" d="M0.06 221.79L29.17 221.79L29.17 257.68L23.46 257.68L23.46 226.8L5.77 226.8L5.77 257.68L0.06 257.68L0.06 221.79ZM51.77 258.19C49.64 258.19 47.77 257.68 46.16 256.67C44.54 255.66 43.26 254.35 42.32 252.73L42.32 268.45L36.75 268.45L36.75 231.25L41.66 231.25L41.66 236C42.67 234.41 43.97 233.15 45.57 232.21C47.18 231.26 48.99 230.79 51.01 230.79C52.83 230.79 54.5 231.16 56.01 231.9C57.53 232.65 58.84 233.64 59.96 234.89C61.07 236.13 61.94 237.58 62.56 239.23C63.18 240.89 63.49 242.62 63.49 244.44C63.49 246.36 63.21 248.15 62.64 249.82C62.06 251.49 61.25 252.94 60.21 254.17C59.16 255.4 57.93 256.38 56.49 257.1C55.06 257.83 53.49 258.19 51.77 258.19ZM49.95 253.44C51.13 253.44 52.2 253.18 53.16 252.68C54.12 252.17 54.94 251.5 55.63 250.66C56.32 249.81 56.86 248.85 57.23 247.78C57.6 246.7 57.78 245.59 57.78 244.44C57.78 243.23 57.57 242.08 57.15 241C56.73 239.92 56.16 238.98 55.43 238.17C54.71 237.36 53.84 236.72 52.83 236.25C51.82 235.78 50.72 235.54 49.54 235.54C48.84 235.54 48.09 235.68 47.32 235.95C46.54 236.22 45.82 236.59 45.15 237.06C44.47 237.53 43.88 238.08 43.38 238.7C42.87 239.33 42.52 240.01 42.32 240.75L42.32 247.67C42.65 248.48 43.09 249.24 43.63 249.95C44.17 250.66 44.77 251.26 45.42 251.77C46.08 252.27 46.8 252.68 47.57 252.98C48.35 253.29 49.14 253.44 49.95 253.44ZM80.38 258.19C78.29 258.19 76.41 257.82 74.74 257.08C73.07 256.33 71.65 255.34 70.47 254.09C69.29 252.85 68.38 251.39 67.74 249.72C67.1 248.05 66.78 246.31 66.78 244.49C66.78 242.67 67.1 240.92 67.74 239.26C68.38 237.59 69.3 236.13 70.49 234.89C71.69 233.64 73.12 232.64 74.79 231.9C76.46 231.16 78.32 230.79 80.38 230.79C82.43 230.79 84.29 231.16 85.96 231.9C87.63 232.64 89.06 233.64 90.26 234.89C91.45 236.13 92.37 237.59 93.01 239.26C93.65 240.92 93.97 242.67 93.97 244.49C93.97 246.31 93.65 248.05 93.01 249.72C92.37 251.39 91.45 252.85 90.26 254.09C89.06 255.34 87.63 256.33 85.96 257.08C84.29 257.82 82.43 258.19 80.38 258.19ZM72.49 244.54C72.49 245.82 72.69 247 73.1 248.08C73.5 249.16 74.06 250.09 74.77 250.88C75.47 251.67 76.31 252.3 77.27 252.75C78.23 253.21 79.27 253.44 80.38 253.44C81.49 253.44 82.53 253.21 83.49 252.75C84.45 252.3 85.28 251.67 85.99 250.86C86.7 250.05 87.25 249.11 87.66 248.03C88.06 246.95 88.26 245.77 88.26 244.49C88.26 243.24 88.06 242.07 87.66 240.98C87.25 239.88 86.7 238.93 85.99 238.12C85.28 237.31 84.45 236.68 83.49 236.22C82.53 235.77 81.49 235.54 80.38 235.54C79.3 235.54 78.28 235.78 77.32 236.25C76.36 236.72 75.52 237.36 74.82 238.17C74.11 238.98 73.54 239.93 73.12 241.03C72.7 242.12 72.49 243.29 72.49 244.54ZM116.31 235.64L104.49 235.64L104.49 257.68L99.03 257.68L99.03 231.25L116.31 231.25L116.31 235.64ZM135.62 258.19C133.5 258.19 131.63 257.68 130.01 256.67C128.39 255.66 127.11 254.35 126.17 252.73L126.17 268.45L120.61 268.45L120.61 231.25L125.51 231.25L125.51 236C126.52 234.41 127.83 233.15 129.43 232.21C131.03 231.26 132.84 230.79 134.87 230.79C136.68 230.79 138.35 231.16 139.87 231.9C141.39 232.65 142.7 233.64 143.81 234.89C144.92 236.13 145.79 237.58 146.42 239.23C147.04 240.89 147.35 242.62 147.35 244.44C147.35 246.36 147.06 248.15 146.49 249.82C145.92 251.49 145.11 252.94 144.06 254.17C143.02 255.4 141.78 256.38 140.35 257.1C138.92 257.83 137.34 258.19 135.62 258.19ZM133.8 253.44C134.98 253.44 136.05 253.18 137.01 252.68C137.97 252.17 138.8 251.5 139.49 250.66C140.18 249.81 140.71 248.85 141.08 247.78C141.45 246.7 141.64 245.59 141.64 244.44C141.64 243.23 141.43 242.08 141.01 241C140.59 239.92 140.01 238.98 139.29 238.17C138.56 237.36 137.7 236.72 136.68 236.25C135.67 235.78 134.58 235.54 133.4 235.54C132.69 235.54 131.95 235.68 131.18 235.95C130.4 236.22 129.68 236.59 129 237.06C128.33 237.53 127.74 238.08 127.23 238.7C126.73 239.33 126.37 240.01 126.17 240.75L126.17 247.67C126.51 248.48 126.95 249.24 127.49 249.95C128.02 250.66 128.62 251.26 129.28 251.77C129.94 252.27 130.65 252.68 131.43 252.98C132.2 253.29 133 253.44 133.8 253.44ZM159.38 258.19C158.1 258.19 156.91 257.98 155.82 257.56C154.72 257.14 153.78 256.55 152.99 255.81C152.19 255.07 151.57 254.2 151.12 253.18C150.66 252.17 150.43 251.08 150.43 249.9C150.43 248.65 150.7 247.52 151.24 246.51C151.78 245.5 152.55 244.63 153.54 243.88C154.53 243.14 155.72 242.57 157.08 242.16C158.44 241.76 159.95 241.56 161.6 241.56C162.85 241.56 164.08 241.67 165.29 241.89C166.51 242.11 167.6 242.4 168.58 242.77L168.58 240.95C168.58 239 168.02 237.47 166.91 236.38C165.8 235.28 164.2 234.73 162.11 234.73C160.69 234.73 159.3 235 157.94 235.52C156.57 236.04 155.17 236.79 153.72 237.77L152 234.23C155.4 231.94 158.94 230.79 162.61 230.79C166.25 230.79 169.08 231.72 171.11 233.57C173.13 235.43 174.14 238.09 174.14 241.56L174.14 251.11C174.14 252.29 174.63 252.9 175.6 252.93L175.6 257.68C175.07 257.78 174.6 257.85 174.22 257.89C173.83 257.92 173.45 257.94 173.08 257.94C172 257.94 171.17 257.67 170.58 257.13C169.99 256.59 169.62 255.9 169.49 255.05L169.34 253.39C168.16 254.94 166.7 256.13 164.97 256.95C163.23 257.78 161.37 258.19 159.38 258.19ZM160.9 254.09C162.24 254.09 163.52 253.85 164.71 253.36C165.91 252.87 166.84 252.19 167.52 251.31C168.23 250.71 168.58 250.07 168.58 249.39L168.58 245.9C167.64 245.54 166.63 245.25 165.57 245.05C164.51 244.84 163.47 244.74 162.46 244.74C160.47 244.74 158.85 245.17 157.59 246.03C156.32 246.89 155.69 248.03 155.69 249.44C155.69 250.76 156.18 251.86 157.16 252.75C158.13 253.65 159.38 254.09 160.9 254.09ZM195.07 246.71L203.51 231.25L209.12 231.25L209.12 257.68L203.76 257.68L203.76 240.34L196.53 253.54L193.65 253.54L186.37 240.34L186.37 257.68L181.01 257.68L181.01 231.25L186.67 231.25L195.07 246.71ZM222.92 258.19C221.64 258.19 220.45 257.98 219.35 257.56C218.26 257.14 217.31 256.55 216.52 255.81C215.73 255.07 215.11 254.2 214.65 253.18C214.2 252.17 213.97 251.08 213.97 249.9C213.97 248.65 214.24 247.52 214.78 246.51C215.32 245.5 216.08 244.63 217.08 243.88C218.07 243.14 219.25 242.57 220.62 242.16C221.98 241.76 223.49 241.56 225.14 241.56C226.39 241.56 227.62 241.67 228.83 241.89C230.04 242.11 231.14 242.4 232.12 242.77L232.12 240.95C232.12 239 231.56 237.47 230.45 236.38C229.34 235.28 227.73 234.73 225.64 234.73C224.23 234.73 222.84 235 221.47 235.52C220.11 236.04 218.7 236.79 217.25 237.77L215.54 234.23C218.94 231.94 222.48 230.79 226.15 230.79C229.79 230.79 232.62 231.72 234.64 233.57C236.66 235.43 237.68 238.09 237.68 241.56L237.68 251.11C237.68 252.29 238.16 252.9 239.14 252.93L239.14 257.68C238.6 257.78 238.14 257.85 237.75 257.89C237.36 257.92 236.98 257.94 236.61 257.94C235.54 257.94 234.7 257.67 234.11 257.13C233.52 256.59 233.16 255.9 233.02 255.05L232.87 253.39C231.69 254.94 230.24 256.13 228.5 256.95C226.77 257.78 224.9 258.19 222.92 258.19ZM224.43 254.09C225.78 254.09 227.05 253.85 228.25 253.36C229.44 252.87 230.38 252.19 231.05 251.31C231.76 250.71 232.12 250.07 232.12 249.39L232.12 245.9C231.17 245.54 230.17 245.25 229.11 245.05C228.05 244.84 227.01 244.74 226 244.74C224.01 244.74 222.39 245.17 221.12 246.03C219.86 246.89 219.23 248.03 219.23 249.44C219.23 250.76 219.71 251.86 220.69 252.75C221.67 253.65 222.92 254.09 224.43 254.09ZM287.82 249.65C287.24 250.99 286.45 252.18 285.44 253.21C284.43 254.24 283.28 255.1 281.98 255.81C280.68 256.52 279.26 257.06 277.71 257.43C276.16 257.8 274.56 257.99 272.91 257.99C270.24 257.99 267.83 257.45 265.68 256.37C263.52 255.29 261.69 253.88 260.17 252.15C258.65 250.41 257.48 248.44 256.66 246.23C255.83 244.03 255.42 241.78 255.42 239.49C255.42 237.33 255.8 235.18 256.55 233.04C257.31 230.9 258.44 228.98 259.94 227.28C261.44 225.58 263.29 224.2 265.5 223.16C267.71 222.11 270.26 221.59 273.16 221.59C276.7 221.59 279.63 222.32 281.95 223.79C284.28 225.26 286.03 227.13 287.21 229.43L282.76 232.41C282.26 231.33 281.63 230.42 280.89 229.68C280.15 228.94 279.34 228.35 278.47 227.91C277.59 227.47 276.68 227.16 275.74 226.97C274.79 226.79 273.87 226.7 272.96 226.7C271.2 226.7 269.66 226.98 268.33 227.56C267 228.13 265.86 228.9 264.92 229.85C263.98 230.82 263.22 231.92 262.65 233.17C262.07 234.41 261.69 235.69 261.48 237.01L277.66 237.01L277.66 241.71L261.33 241.71C261.53 243.23 261.95 244.66 262.57 246.01C263.19 247.35 264.01 248.54 265.02 249.57C266.03 250.6 267.22 251.41 268.58 252C269.95 252.59 271.46 252.88 273.11 252.88C274.02 252.88 274.96 252.77 275.94 252.55C276.92 252.33 277.85 251.98 278.74 251.49C279.64 251 280.46 250.39 281.22 249.65C281.98 248.9 282.61 248.01 283.12 246.97L287.82 249.65ZM306.87 231.25C307.82 231.25 308.7 231.42 309.53 231.75C310.35 232.09 311.06 232.55 311.65 233.14C312.24 233.73 312.7 234.43 313.04 235.24C313.38 236.05 313.55 236.91 313.55 237.82C313.55 238.96 313.26 240.12 312.69 241.28C312.11 242.44 311.14 243.31 309.76 243.88C311.27 244.32 312.46 245.09 313.32 246.18C314.18 247.28 314.61 248.68 314.61 250.4C314.61 252.73 313.8 254.52 312.18 255.79C310.56 257.05 308.42 257.68 305.76 257.68L292.47 257.68L292.47 231.25L306.87 231.25ZM304.45 242.42C305.56 242.42 306.44 242.1 307.1 241.48C307.76 240.86 308.09 239.96 308.09 238.78C308.09 237.8 307.82 236.98 307.28 236.3C306.74 235.63 305.88 235.29 304.7 235.29L297.93 235.29L297.93 242.42L304.45 242.42ZM305.26 253.64C306.44 253.64 307.37 253.26 308.06 252.5C308.75 251.74 309.1 250.84 309.1 249.8C309.1 248.75 308.77 247.86 308.11 247.12C307.46 246.38 306.54 246.01 305.36 246.01L297.93 246.01L297.93 253.64L305.26 253.64ZM334.73 258.19C332.6 258.19 330.73 257.68 329.11 256.67C327.5 255.66 326.22 254.35 325.27 252.73L325.27 268.45L319.71 268.45L319.71 231.25L324.62 231.25L324.62 236C325.63 234.41 326.93 233.15 328.53 232.21C330.13 231.26 331.95 230.79 333.97 230.79C335.79 230.79 337.45 231.16 338.97 231.9C340.49 232.65 341.8 233.64 342.91 234.89C344.03 236.13 344.89 237.58 345.52 239.23C346.14 240.89 346.45 242.62 346.45 244.44C346.45 246.36 346.17 248.15 345.59 249.82C345.02 251.49 344.21 252.94 343.17 254.17C342.12 255.4 340.88 256.38 339.45 257.1C338.02 257.83 336.44 258.19 334.73 258.19ZM332.91 253.44C334.08 253.44 335.16 253.18 336.11 252.68C337.08 252.17 337.9 251.5 338.59 250.66C339.28 249.81 339.81 248.85 340.18 247.78C340.55 246.7 340.74 245.59 340.74 244.44C340.74 243.23 340.53 242.08 340.11 241C339.69 239.92 339.11 238.98 338.39 238.17C337.66 237.36 336.8 236.72 335.79 236.25C334.78 235.78 333.68 235.54 332.5 235.54C331.79 235.54 331.05 235.68 330.28 235.95C329.5 236.22 328.78 236.59 328.1 237.06C327.43 237.53 326.84 238.08 326.33 238.7C325.83 239.33 325.48 240.01 325.27 240.75L325.27 247.67C325.61 248.48 326.05 249.24 326.59 249.95C327.13 250.66 327.72 251.26 328.38 251.77C329.04 252.27 329.75 252.68 330.53 252.98C331.3 253.29 332.1 253.44 332.91 253.44ZM363.33 258.19C361.24 258.19 359.37 257.82 357.7 257.08C356.03 256.33 354.61 255.34 353.43 254.09C352.25 252.85 351.34 251.39 350.7 249.72C350.06 248.05 349.74 246.31 349.74 244.49C349.74 242.67 350.06 240.92 350.7 239.26C351.34 237.59 352.26 236.13 353.45 234.89C354.65 233.64 356.08 232.64 357.75 231.9C359.42 231.16 361.28 230.79 363.33 230.79C365.39 230.79 367.25 231.16 368.92 231.9C370.59 232.64 372.02 233.64 373.22 234.89C374.41 236.13 375.33 237.59 375.97 239.26C376.61 240.92 376.93 242.67 376.93 244.49C376.93 246.31 376.61 248.05 375.97 249.72C375.33 251.39 374.41 252.85 373.22 254.09C372.02 255.34 370.59 256.33 368.92 257.08C367.25 257.82 365.39 258.19 363.33 258.19ZM355.45 244.54C355.45 245.82 355.65 247 356.06 248.08C356.46 249.16 357.02 250.09 357.72 250.88C358.43 251.67 359.27 252.3 360.23 252.75C361.19 253.21 362.22 253.44 363.33 253.44C364.45 253.44 365.48 253.21 366.44 252.75C367.4 252.3 368.24 251.67 368.95 250.86C369.65 250.05 370.21 249.11 370.61 248.03C371.02 246.95 371.22 245.77 371.22 244.49C371.22 243.24 371.02 242.07 370.61 240.98C370.21 239.88 369.65 238.93 368.95 238.12C368.24 237.31 367.4 236.68 366.44 236.22C365.48 235.77 364.45 235.54 363.33 235.54C362.26 235.54 361.24 235.78 360.28 236.25C359.32 236.72 358.48 237.36 357.78 238.17C357.07 238.98 356.5 239.93 356.08 241.03C355.66 242.12 355.45 243.29 355.45 244.54ZM404.18 257.68L398.72 257.68L398.72 236.05L387.44 236.05L387.44 257.68L381.99 257.68L381.99 231.25L404.18 231.25L404.18 257.68ZM422.93 258.19C420.87 258.19 419 257.83 417.32 257.1C415.63 256.38 414.19 255.39 413 254.14C411.8 252.9 410.87 251.45 410.22 249.8C409.56 248.15 409.23 246.39 409.23 244.54C409.23 242.69 409.56 240.93 410.22 239.26C410.87 237.59 411.8 236.12 413 234.86C414.19 233.6 415.63 232.6 417.32 231.88C419 231.15 420.89 230.79 422.98 230.79C425.03 230.79 426.9 231.16 428.56 231.9C430.23 232.64 431.66 233.63 432.84 234.86C434.01 236.09 434.92 237.52 435.54 239.16C436.16 240.79 436.48 242.5 436.48 244.29C436.48 244.69 436.46 245.07 436.42 245.43C436.39 245.78 436.36 246.07 436.32 246.31L415.14 246.31C415.25 247.49 415.52 248.55 415.98 249.49C416.43 250.44 417.02 251.26 417.75 251.94C418.47 252.64 419.3 253.17 420.22 253.54C421.15 253.91 422.12 254.09 423.13 254.09C423.87 254.09 424.6 254 425.33 253.82C426.05 253.63 426.72 253.36 427.33 253.01C427.93 252.65 428.47 252.22 428.94 251.72C429.42 251.21 429.79 250.66 430.06 250.05L434.81 251.41C433.9 253.4 432.39 255.03 430.28 256.29C428.18 257.56 425.73 258.19 422.93 258.19ZM430.97 242.47C430.86 241.35 430.59 240.33 430.13 239.38C429.68 238.44 429.1 237.64 428.39 236.98C427.68 236.33 426.85 235.81 425.91 235.44C424.97 235.07 423.97 234.89 422.93 234.89C421.88 234.89 420.9 235.07 419.97 235.44C419.04 235.81 418.23 236.33 417.52 236.98C416.81 237.64 416.24 238.44 415.8 239.38C415.36 240.33 415.09 241.35 414.99 242.47L430.97 242.47ZM461.29 220.78C461.22 222.81 460.47 224.34 459.02 225.38C457.57 226.43 455.66 226.95 453.3 226.95C450.95 226.95 449.04 226.43 447.59 225.38C446.14 224.34 445.37 222.81 445.27 220.78L448.45 220.78C448.52 222.13 448.97 223.07 449.79 223.59C450.62 224.11 451.79 224.37 453.3 224.37C454.79 224.37 455.94 224.11 456.77 223.59C457.59 223.07 458.06 222.13 458.16 220.78L461.29 220.78ZM446.58 249.8L460.13 231.25L464.37 231.25L464.37 257.68L458.92 257.68L458.92 239.54L445.62 257.68L441.12 257.68L441.12 231.25L446.58 231.25L446.58 249.8ZM469.43 244.44C469.43 242.59 469.75 240.83 470.39 239.18C471.03 237.53 471.95 236.08 473.15 234.84C474.34 233.59 475.78 232.6 477.47 231.88C479.15 231.15 481.04 230.79 483.13 230.79C485.86 230.79 488.21 231.39 490.18 232.59C492.15 233.78 493.63 235.38 494.6 237.36L489.2 239.08C488.56 237.97 487.7 237.1 486.62 236.48C485.54 235.86 484.34 235.54 483.03 235.54C481.92 235.54 480.88 235.76 479.92 236.2C478.96 236.64 478.13 237.25 477.42 238.05C476.71 238.84 476.15 239.77 475.75 240.85C475.35 241.93 475.14 243.13 475.14 244.44C475.14 245.72 475.35 246.91 475.78 248C476.2 249.1 476.77 250.05 477.49 250.86C478.22 251.67 479.06 252.3 480.02 252.75C480.98 253.21 482 253.44 483.08 253.44C483.75 253.44 484.43 253.34 485.1 253.16C485.77 252.98 486.39 252.71 486.95 252.38C487.5 252.04 487.99 251.65 488.41 251.21C488.83 250.78 489.14 250.3 489.35 249.8L494.81 251.41C493.93 253.4 492.46 255.03 490.41 256.29C488.35 257.56 485.93 258.19 483.13 258.19C481.07 258.19 479.2 257.82 477.52 257.08C475.83 256.34 474.39 255.33 473.2 254.07C472 252.81 471.07 251.35 470.42 249.7C469.76 248.05 469.43 246.29 469.43 244.44ZM499.51 231.25L504.96 231.25L504.96 239.99L510.07 239.99C511.35 239.99 512.57 240.18 513.74 240.55C514.9 240.92 515.93 241.48 516.82 242.24C517.71 243 518.42 243.93 518.94 245.05C519.46 246.16 519.72 247.44 519.72 248.89C519.72 250.37 519.46 251.66 518.94 252.75C518.42 253.85 517.72 254.77 516.84 255.51C515.97 256.25 514.95 256.8 513.79 257.15C512.62 257.51 511.42 257.68 510.17 257.68L499.51 257.68L499.51 231.25ZM509.82 253.18C511.1 253.18 512.14 252.83 512.95 252.12C513.76 251.41 514.17 250.35 514.17 248.94C514.17 247.49 513.74 246.39 512.9 245.63C512.06 244.87 511.05 244.49 509.87 244.49L504.96 244.49L504.96 253.18L509.82 253.18ZM540.3 231.25L546.36 231.25L536 244.09L547.12 257.68L540.9 257.68L532.26 246.76L529.78 246.76L529.78 257.68L524.32 257.68L524.32 231.25L529.78 231.25L529.78 242.27L531.86 242.27L540.3 231.25ZM561.32 258.19C559.23 258.19 557.36 257.82 555.69 257.08C554.02 256.33 552.6 255.34 551.42 254.09C550.24 252.85 549.33 251.39 548.69 249.72C548.05 248.05 547.73 246.31 547.73 244.49C547.73 242.67 548.05 240.92 548.69 239.26C549.33 237.59 550.25 236.13 551.44 234.89C552.64 233.64 554.07 232.64 555.74 231.9C557.41 231.16 559.27 230.79 561.32 230.79C563.38 230.79 565.24 231.16 566.91 231.9C568.58 232.64 570.01 233.64 571.21 234.89C572.4 236.13 573.32 237.59 573.96 239.26C574.6 240.92 574.92 242.67 574.92 244.49C574.92 246.31 574.6 248.05 573.96 249.72C573.32 251.39 572.4 252.85 571.21 254.09C570.01 255.34 568.58 256.33 566.91 257.08C565.24 257.82 563.38 258.19 561.32 258.19ZM553.44 244.54C553.44 245.82 553.64 247 554.05 248.08C554.45 249.16 555.01 250.09 555.72 250.88C556.42 251.67 557.26 252.3 558.22 252.75C559.18 253.21 560.21 253.44 561.32 253.44C562.44 253.44 563.47 253.21 564.43 252.75C565.4 252.3 566.23 251.67 566.94 250.86C567.64 250.05 568.2 249.11 568.6 248.03C569.01 246.95 569.21 245.77 569.21 244.49C569.21 243.24 569.01 242.07 568.6 240.98C568.2 239.88 567.64 238.93 566.94 238.12C566.23 237.31 565.4 236.68 564.43 236.22C563.47 235.77 562.44 235.54 561.32 235.54C560.25 235.54 559.23 235.78 558.27 236.25C557.31 236.72 556.47 237.36 555.77 238.17C555.06 238.98 554.49 239.93 554.07 241.03C553.65 242.12 553.44 243.29 553.44 244.54ZM597.26 235.64L585.44 235.64L585.44 257.68L579.98 257.68L579.98 231.25L597.26 231.25L597.26 235.64ZM611.87 258.19C609.78 258.19 607.9 257.82 606.24 257.08C604.57 256.33 603.14 255.34 601.96 254.09C600.78 252.85 599.87 251.39 599.23 249.72C598.59 248.05 598.28 246.31 598.28 244.49C598.28 242.67 598.59 240.92 599.23 239.26C599.87 237.59 600.79 236.13 601.99 234.89C603.19 233.64 604.62 232.64 606.29 231.9C607.95 231.16 609.82 230.79 611.87 230.79C613.93 230.79 615.79 231.16 617.46 231.9C619.12 232.64 620.56 233.64 621.75 234.89C622.95 236.13 623.87 237.59 624.51 239.26C625.15 240.92 625.47 242.67 625.47 244.49C625.47 246.31 625.15 248.05 624.51 249.72C623.87 251.39 622.95 252.85 621.75 254.09C620.56 255.34 619.12 256.33 617.46 257.08C615.79 257.82 613.93 258.19 611.87 258.19ZM603.99 244.54C603.99 245.82 604.19 247 604.59 248.08C605 249.16 605.55 250.09 606.26 250.88C606.97 251.67 607.8 252.3 608.76 252.75C609.72 253.21 610.76 253.44 611.87 253.44C612.98 253.44 614.02 253.21 614.98 252.75C615.94 252.3 616.78 251.67 617.48 250.86C618.19 250.05 618.75 249.11 619.15 248.03C619.55 246.95 619.76 245.77 619.76 244.49C619.76 243.24 619.55 242.07 619.15 240.98C618.75 239.88 618.19 238.93 617.48 238.12C616.78 237.31 615.94 236.68 614.98 236.22C614.02 235.77 612.98 235.54 611.87 235.54C610.79 235.54 609.77 235.78 608.81 236.25C607.85 236.72 607.02 237.36 606.31 238.17C605.6 238.98 605.04 239.93 604.62 241.03C604.2 242.12 603.99 243.29 603.99 244.54ZM641.34 239.49C641.34 237.33 641.73 235.18 642.5 233.04C643.28 230.9 644.42 228.98 645.91 227.28C647.41 225.58 649.24 224.2 651.4 223.16C653.55 222.11 656 221.59 658.73 221.59C662 221.59 664.8 222.32 667.12 223.77C669.45 225.21 671.2 227.1 672.38 229.43L667.93 232.41C667.42 231.33 666.82 230.42 666.11 229.68C665.4 228.94 664.63 228.35 663.78 227.91C662.94 227.47 662.06 227.16 661.15 226.97C660.25 226.79 659.37 226.7 658.53 226.7C656.64 226.7 654.99 227.08 653.57 227.83C652.16 228.59 650.97 229.6 650.01 230.84C649.05 232.09 648.32 233.49 647.84 235.04C647.35 236.59 647.1 238.14 647.1 239.69C647.1 241.44 647.39 243.11 647.96 244.69C648.54 246.28 649.33 247.67 650.36 248.89C651.39 250.1 652.61 251.07 654.03 251.79C655.44 252.52 656.99 252.88 658.68 252.88C659.55 252.88 660.46 252.77 661.38 252.55C662.31 252.33 663.2 251.98 664.06 251.49C664.92 251 665.71 250.39 666.44 249.65C667.16 248.9 667.76 248.01 668.23 246.97L672.93 249.65C672.36 250.99 671.55 252.18 670.51 253.21C669.46 254.24 668.28 255.11 666.97 255.81C665.65 256.52 664.26 257.06 662.8 257.43C661.33 257.8 659.89 257.99 658.48 257.99C655.95 257.99 653.64 257.45 651.55 256.37C649.46 255.29 647.66 253.88 646.14 252.15C644.63 250.41 643.45 248.44 642.6 246.23C641.76 244.03 641.34 241.78 641.34 239.49ZM689.31 258.19C687.22 258.19 685.34 257.82 683.67 257.08C682.01 256.33 680.58 255.34 679.4 254.09C678.22 252.85 677.31 251.39 676.67 249.72C676.03 248.05 675.71 246.31 675.71 244.49C675.71 242.67 676.03 240.92 676.67 239.26C677.31 237.59 678.23 236.13 679.43 234.89C680.62 233.64 682.06 232.64 683.72 231.9C685.39 231.16 687.25 230.79 689.31 230.79C691.37 230.79 693.23 231.16 694.89 231.9C696.56 232.64 697.99 233.64 699.19 234.89C700.39 236.13 701.31 237.59 701.95 239.26C702.59 240.92 702.91 242.67 702.91 244.49C702.91 246.31 702.59 248.05 701.95 249.72C701.31 251.39 700.39 252.85 699.19 254.09C697.99 255.34 696.56 256.33 694.89 257.08C693.23 257.82 691.37 258.19 689.31 258.19ZM681.42 244.54C681.42 245.82 681.63 247 682.03 248.08C682.44 249.16 682.99 250.09 683.7 250.88C684.41 251.67 685.24 252.3 686.2 252.75C687.16 253.21 688.2 253.44 689.31 253.44C690.42 253.44 691.46 253.21 692.42 252.75C693.38 252.3 694.21 251.67 694.92 250.86C695.63 250.05 696.18 249.11 696.59 248.03C696.99 246.95 697.2 245.77 697.2 244.49C697.2 243.24 696.99 242.07 696.59 240.98C696.18 239.88 695.63 238.93 694.92 238.12C694.21 237.31 693.38 236.68 692.42 236.22C691.46 235.77 690.42 235.54 689.31 235.54C688.23 235.54 687.21 235.78 686.25 236.25C685.29 236.72 684.46 237.36 683.75 238.17C683.04 238.98 682.48 239.93 682.06 241.03C681.63 242.12 681.42 243.29 681.42 244.54ZM717.01 241.91C717.24 240.19 717.71 238.64 718.4 237.26C719.09 235.88 719.96 234.7 721 233.72C722.05 232.75 723.25 232 724.62 231.47C725.98 230.95 727.45 230.69 729.04 230.69C730.89 230.69 732.58 231.04 734.09 231.73C735.61 232.42 736.92 233.38 738.01 234.61C739.11 235.84 739.95 237.3 740.54 239.01C741.13 240.71 741.42 242.55 741.42 244.54C741.42 246.66 741.11 248.57 740.49 250.25C739.86 251.94 739 253.37 737.88 254.55C736.77 255.73 735.45 256.63 733.92 257.25C732.38 257.88 730.72 258.19 728.94 258.19C727.29 258.19 725.77 257.92 724.39 257.38C723.01 256.84 721.79 256.06 720.75 255.05C719.7 254.04 718.85 252.83 718.2 251.41C717.54 250 717.11 248.43 716.91 246.71L713.42 246.71L713.42 257.68L707.91 257.68L707.91 231.25L713.42 231.25L713.42 241.91L717.01 241.91ZM722.22 244.49C722.22 247.39 722.82 249.59 724.03 251.09C725.25 252.59 726.9 253.34 728.99 253.34C731.21 253.34 732.93 252.56 734.14 251.01C735.36 249.46 735.96 247.27 735.96 244.44C735.96 241.58 735.33 239.38 734.07 237.87C732.8 236.35 731.11 235.59 728.99 235.59C726.83 235.59 725.16 236.39 723.98 237.99C722.8 239.6 722.22 241.76 722.22 244.49ZM744.45 234.03C745.6 232.95 746.87 232.14 748.27 231.6C749.67 231.06 751.16 230.79 752.74 230.79C753.92 230.79 755.01 230.94 756 231.25C757 231.55 757.86 231.98 758.58 232.54C759.31 233.09 759.87 233.78 760.27 234.61C760.68 235.43 760.88 236.37 760.88 237.41C760.88 238.9 760.49 240.17 759.69 241.23C758.9 242.29 757.8 242.92 756.38 243.13C758.31 243.43 759.79 244.2 760.83 245.43C761.88 246.66 762.4 248.2 762.4 250.05C762.4 251.26 762.16 252.37 761.66 253.36C761.18 254.36 760.49 255.22 759.62 255.94C758.74 256.66 757.7 257.22 756.49 257.61C755.27 257.99 753.94 258.19 752.49 258.19C748.68 258.19 745.73 256.91 743.65 254.35L746.42 250.66C747.81 252.55 749.76 253.49 752.29 253.49C753.81 253.49 754.98 253.16 755.8 252.5C756.63 251.84 757.04 250.88 757.04 249.6C757.04 246.66 754.94 245.2 750.72 245.2L748.85 245.2L748.85 241.56L750.72 241.56C752.34 241.56 753.6 241.22 754.51 240.55C755.42 239.87 755.88 238.98 755.88 237.87C755.88 236.96 755.55 236.24 754.89 235.72C754.24 235.2 753.35 234.94 752.24 234.94C750.42 234.94 748.67 235.68 746.98 237.16L744.45 234.03ZM767 263.09C767.57 263.53 768.13 263.83 768.67 264C769.21 264.17 769.75 264.25 770.29 264.25C771.16 264.25 771.95 263.77 772.63 262.81C773.33 261.85 773.99 260.14 774.63 257.68L763.76 231.25L769.48 231.25L777.66 252.78L784.94 231.25L790.2 231.25L779.23 261.22C778.15 264.15 776.95 266.19 775.62 267.34C774.29 268.48 772.68 269.06 770.79 269.06C769.98 269.06 769.27 268.97 768.67 268.8C768.06 268.63 767.51 268.33 767 267.89L767 263.09ZM805.37 240.19C805.37 238.48 805.56 236.77 805.95 235.09C806.33 233.4 806.86 231.71 807.51 230.01C808.17 228.31 808.95 226.61 809.84 224.9C810.73 223.2 811.68 221.49 812.7 219.77L816.99 221.59C816.39 222.47 815.71 223.62 814.97 225.06C814.23 226.49 813.53 228.06 812.87 229.76C812.22 231.46 811.67 233.23 811.23 235.06C810.79 236.9 810.57 238.66 810.57 240.35C810.57 243.01 811.14 245.84 812.27 248.84C813.39 251.84 814.92 254.89 816.84 257.99L812.8 260.06C810.67 256.89 808.91 253.63 807.49 250.28C806.07 246.92 805.37 243.56 805.37 240.19ZM851.72 249.65C851.14 250.99 850.35 252.18 849.34 253.21C848.33 254.24 847.17 255.1 845.88 255.81C844.58 256.52 843.16 257.06 841.61 257.43C840.06 257.8 838.46 257.99 836.81 257.99C834.14 257.99 831.73 257.45 829.58 256.37C827.42 255.29 825.58 253.88 824.07 252.15C822.55 250.41 821.38 248.44 820.55 246.23C819.73 244.03 819.32 241.78 819.32 239.49C819.32 237.33 819.69 235.18 820.45 233.04C821.21 230.9 822.34 228.98 823.84 227.28C825.34 225.58 827.19 224.2 829.4 223.16C831.61 222.11 834.16 221.59 837.06 221.59C840.6 221.59 843.53 222.32 845.85 223.79C848.18 225.26 849.93 227.13 851.11 229.43L846.66 232.41C846.16 231.33 845.53 230.42 844.79 229.68C844.05 228.94 843.24 228.35 842.37 227.91C841.49 227.47 840.58 227.16 839.64 226.97C838.69 226.79 837.76 226.7 836.86 226.7C835.1 226.7 833.56 226.98 832.23 227.56C830.9 228.13 829.76 228.9 828.82 229.85C827.87 230.82 827.12 231.92 826.54 233.17C825.97 234.41 825.58 235.69 825.38 237.01L841.56 237.01L841.56 241.71L825.23 241.71C825.43 243.23 825.84 244.66 826.47 246.01C827.09 247.35 827.91 248.54 828.92 249.57C829.93 250.6 831.12 251.41 832.48 252C833.85 252.59 835.36 252.88 837.01 252.88C837.92 252.88 838.86 252.77 839.84 252.55C840.82 252.33 841.75 251.98 842.64 251.49C843.54 251 844.36 250.39 845.12 249.65C845.88 248.9 846.51 248.01 847.02 246.97L851.72 249.65ZM854.19 239.49C854.19 237.33 854.58 235.18 855.36 233.04C856.13 230.9 857.27 228.98 858.77 227.28C860.27 225.58 862.1 224.2 864.25 223.16C866.41 222.11 868.85 221.59 871.58 221.59C874.85 221.59 877.65 222.32 879.97 223.77C882.3 225.21 884.05 227.1 885.23 229.43L880.78 232.41C880.28 231.33 879.67 230.42 878.96 229.68C878.25 228.94 877.48 228.35 876.64 227.91C875.8 227.47 874.92 227.16 874.01 226.97C873.1 226.79 872.22 226.7 871.38 226.7C869.49 226.7 867.84 227.08 866.43 227.83C865.01 228.59 863.82 229.6 862.86 230.84C861.9 232.09 861.18 233.49 860.69 235.04C860.2 236.59 859.96 238.14 859.96 239.69C859.96 241.44 860.24 243.11 860.82 244.69C861.39 246.28 862.19 247.67 863.22 248.89C864.24 250.1 865.47 251.07 866.88 251.79C868.3 252.52 869.85 252.88 871.53 252.88C872.41 252.88 873.31 252.77 874.24 252.55C875.16 252.33 876.06 251.98 876.91 251.49C877.77 251 878.57 250.39 879.29 249.65C880.02 248.9 880.61 248.01 881.09 246.97L885.79 249.65C885.21 250.99 884.4 252.18 883.36 253.21C882.32 254.24 881.14 255.11 879.82 255.81C878.51 256.52 877.12 257.06 875.65 257.43C874.19 257.8 872.74 257.99 871.33 257.99C868.8 257.99 866.49 257.45 864.4 256.37C862.32 255.29 860.51 253.88 859 252.15C857.48 250.41 856.3 248.44 855.46 246.23C854.62 244.03 854.19 241.78 854.19 239.49ZM899.94 240.19C899.94 243.56 899.24 246.92 897.84 250.28C896.44 253.63 894.68 256.89 892.56 260.06L888.47 257.99C890.39 254.89 891.92 251.84 893.07 248.84C894.21 245.84 894.78 243.01 894.78 240.35C894.78 238.66 894.56 236.9 894.1 235.06C893.65 233.23 893.09 231.46 892.43 229.76C891.78 228.06 891.08 226.49 890.33 225.06C889.59 223.62 888.94 222.47 888.36 221.59L892.61 219.77C893.62 221.49 894.57 223.2 895.47 224.9C896.36 226.61 897.13 228.31 897.79 230.01C898.45 231.71 898.97 233.4 899.36 235.09C899.74 236.77 899.94 238.48 899.94 240.19ZM4.43 294.68C5.58 293.61 6.85 292.8 8.25 292.26C9.65 291.72 11.14 291.45 12.72 291.45C13.9 291.45 14.99 291.6 15.98 291.9C16.98 292.21 17.84 292.64 18.56 293.19C19.28 293.75 19.85 294.44 20.25 295.26C20.66 296.09 20.86 297.03 20.86 298.07C20.86 299.55 20.46 300.82 19.67 301.89C18.88 302.95 17.78 303.58 16.36 303.78C18.28 304.08 19.77 304.85 20.81 306.08C21.85 307.31 22.38 308.85 22.38 310.71C22.38 311.92 22.13 313.02 21.64 314.02C21.15 315.01 20.47 315.87 19.6 316.6C18.72 317.32 17.68 317.88 16.46 318.26C15.25 318.65 13.92 318.84 12.47 318.84C8.66 318.84 5.71 317.56 3.62 315L6.4 311.31C7.79 313.2 9.74 314.14 12.27 314.14C13.78 314.14 14.95 313.81 15.78 313.16C16.61 312.5 17.02 311.53 17.02 310.25C17.02 307.32 14.91 305.85 10.7 305.85L8.83 305.85L8.83 302.22L10.7 302.22C12.32 302.22 13.58 301.88 14.49 301.2C15.4 300.53 15.86 299.64 15.86 298.52C15.86 297.62 15.53 296.9 14.87 296.38C14.21 295.85 13.33 295.59 12.22 295.59C10.4 295.59 8.64 296.33 6.96 297.82L4.43 294.68ZM62.05 318.34L56.6 318.34L56.6 296.71L45.32 296.71L45.32 318.34L39.86 318.34L39.86 291.9L62.05 291.9L62.05 318.34ZM68.93 291.9L74.49 291.9L74.49 318.34L68.93 318.34L68.93 291.9ZM68.93 281.44L74.49 281.44L74.49 287.56L68.93 287.56L68.93 281.44Z" />
		<path id="Path 6" fill-rule="evenodd" class="shp0" d="M78.79 313.54L80.25 313.54C81.06 313.4 81.73 313.09 82.27 312.6C82.81 312.11 83.28 311.35 83.66 310.3C84.05 309.26 84.39 307.89 84.68 306.18C84.96 304.48 85.24 302.32 85.51 299.69L86.37 291.9L103.81 291.9L103.81 313.54L107.14 313.54L107.14 326.28L102.29 326.28L102.29 318.34L83.49 318.34L83.49 326.28L78.79 326.28L78.79 313.54ZM98.35 313.54L98.35 296.45L91.37 296.45L90.72 301.31C90.28 304.51 89.8 307.08 89.27 309.01C88.75 310.95 88.09 312.46 87.28 313.54L98.35 313.54ZM123.77 318.34L118.31 318.34L118.31 296.71L109.72 296.71L109.72 291.9L132.37 291.9L132.37 296.71L123.77 296.71L123.77 318.34ZM151.77 318.84C149.65 318.84 147.78 318.34 146.16 317.33C144.54 316.32 143.26 315 142.32 313.39L142.32 329.11L136.76 329.11L136.76 291.9L141.66 291.9L141.66 296.65C142.67 295.07 143.98 293.81 145.58 292.86C147.18 291.92 148.99 291.45 151.02 291.45C152.83 291.45 154.5 291.82 156.02 292.56C157.54 293.3 158.85 294.3 159.96 295.54C161.07 296.79 161.94 298.24 162.57 299.89C163.19 301.54 163.5 303.28 163.5 305.1C163.5 307.02 163.21 308.81 162.64 310.48C162.07 312.15 161.26 313.6 160.21 314.83C159.17 316.06 157.93 317.03 156.5 317.76C155.07 318.48 153.49 318.84 151.77 318.84ZM149.95 314.09C151.13 314.09 152.2 313.84 153.16 313.33C154.12 312.83 154.95 312.16 155.64 311.31C156.33 310.47 156.86 309.51 157.23 308.43C157.6 307.35 157.79 306.24 157.79 305.1C157.79 303.88 157.58 302.74 157.16 301.66C156.74 300.58 156.16 299.64 155.44 298.83C154.71 298.02 153.85 297.38 152.83 296.91C151.82 296.44 150.73 296.2 149.55 296.2C148.84 296.2 148.1 296.33 147.33 296.6C146.55 296.87 145.83 297.24 145.15 297.72C144.48 298.19 143.89 298.73 143.38 299.36C142.88 299.98 142.52 300.66 142.32 301.41L142.32 308.33C142.66 309.14 143.1 309.9 143.64 310.61C144.17 311.31 144.77 311.92 145.43 312.43C146.09 312.93 146.8 313.33 147.58 313.64C148.35 313.94 149.15 314.09 149.95 314.09ZM174.06 310.45L187.61 291.9L191.86 291.9L191.86 318.34L186.4 318.34L186.4 300.19L173.1 318.34L168.61 318.34L168.61 291.9L174.06 291.9L174.06 310.45ZM212.83 307.37L221.28 291.9L226.89 291.9L226.89 318.34L221.53 318.34L221.53 301L214.3 314.19L211.42 314.19L204.14 301L204.14 318.34L198.78 318.34L198.78 291.9L204.44 291.9L212.83 307.37ZM249.73 291.9L255.8 291.9L245.44 304.74L256.56 318.34L250.34 318.34L241.7 307.42L239.22 307.42L239.22 318.34L233.76 318.34L233.76 291.9L239.22 291.9L239.22 302.92L241.29 302.92L249.73 291.9ZM265.45 310.45L279 291.9L283.24 291.9L283.24 318.34L277.79 318.34L277.79 300.19L264.49 318.34L259.99 318.34L259.99 291.9L265.45 291.9L265.45 310.45ZM302.91 323.75C303.48 324.19 304.04 324.49 304.58 324.66C305.12 324.83 305.65 324.91 306.19 324.91C307.07 324.91 307.85 324.43 308.54 323.47C309.23 322.51 309.9 320.8 310.54 318.34L299.67 291.9L305.38 291.9L313.57 313.44L320.85 291.9L326.11 291.9L315.14 321.88C314.06 324.81 312.86 326.85 311.53 327.99C310.2 329.14 308.59 329.71 306.7 329.71C305.89 329.71 305.18 329.63 304.58 329.46C303.97 329.29 303.41 328.99 302.91 328.55L302.91 323.75ZM352.49 318.34L347.04 318.34L347.04 296.71L335.76 296.71L335.76 318.34L330.3 318.34L330.3 291.9L352.49 291.9L352.49 318.34ZM374.38 318.84C372.26 318.84 370.39 318.34 368.77 317.33C367.15 316.32 365.87 315 364.93 313.39L364.93 329.11L359.37 329.11L359.37 291.9L364.27 291.9L364.27 296.65C365.28 295.07 366.59 293.81 368.19 292.86C369.79 291.92 371.6 291.45 373.62 291.45C375.44 291.45 377.11 291.82 378.63 292.56C380.14 293.3 381.46 294.3 382.57 295.54C383.68 296.79 384.55 298.24 385.17 299.89C385.8 301.54 386.11 303.28 386.11 305.1C386.11 307.02 385.82 308.81 385.25 310.48C384.68 312.15 383.87 313.6 382.82 314.83C381.78 316.06 380.54 317.03 379.11 317.76C377.68 318.48 376.1 318.84 374.38 318.84ZM372.56 314.09C373.74 314.09 374.81 313.84 375.77 313.33C376.73 312.83 377.56 312.16 378.25 311.31C378.94 310.47 379.47 309.51 379.84 308.43C380.21 307.35 380.4 306.24 380.4 305.1C380.4 303.88 380.19 302.74 379.77 301.66C379.34 300.58 378.77 299.64 378.05 298.83C377.32 298.02 376.45 297.38 375.44 296.91C374.43 296.44 373.34 296.2 372.16 296.2C371.45 296.2 370.71 296.33 369.93 296.6C369.16 296.87 368.43 297.24 367.76 297.72C367.09 298.19 366.5 298.73 365.99 299.36C365.48 299.98 365.13 300.66 364.93 301.41L364.93 308.33C365.27 309.14 365.7 309.9 366.24 310.61C366.78 311.31 367.38 311.92 368.04 312.43C368.69 312.93 369.41 313.33 370.19 313.64C370.96 313.94 371.75 314.09 372.56 314.09ZM398.14 318.84C396.86 318.84 395.67 318.63 394.57 318.21C393.48 317.79 392.53 317.21 391.74 316.47C390.95 315.73 390.33 314.85 389.87 313.84C389.42 312.83 389.19 311.73 389.19 310.55C389.19 309.31 389.46 308.18 390 307.17C390.54 306.16 391.31 305.28 392.3 304.54C393.29 303.8 394.47 303.22 395.84 302.82C397.2 302.42 398.71 302.21 400.36 302.21C401.61 302.21 402.84 302.32 404.05 302.54C405.27 302.76 406.36 303.06 407.34 303.43L407.34 301.61C407.34 299.65 406.78 298.13 405.67 297.03C404.56 295.94 402.96 295.39 400.87 295.39C399.45 295.39 398.06 295.65 396.7 296.17C395.33 296.7 393.92 297.45 392.48 298.42L390.76 294.88C394.16 292.59 397.7 291.45 401.37 291.45C405.01 291.45 407.84 292.38 409.86 294.23C411.89 296.08 412.9 298.74 412.9 302.21L412.9 311.77C412.9 312.95 413.39 313.55 414.36 313.59L414.36 318.34C413.82 318.44 413.36 318.51 412.97 318.54C412.59 318.57 412.21 318.59 411.84 318.59C410.76 318.59 409.92 318.32 409.33 317.78C408.74 317.24 408.38 316.55 408.25 315.71L408.1 314.04C406.92 315.59 405.46 316.78 403.72 317.61C401.99 318.43 400.13 318.84 398.14 318.84ZM399.65 314.75C401 314.75 402.27 314.51 403.47 314.02C404.67 313.53 405.6 312.85 406.28 311.97C406.98 311.36 407.34 310.72 407.34 310.05L407.34 306.56C406.39 306.19 405.39 305.9 404.33 305.7C403.27 305.5 402.23 305.4 401.22 305.4C399.23 305.4 397.61 305.83 396.34 306.69C395.08 307.55 394.45 308.68 394.45 310.1C394.45 311.41 394.94 312.52 395.91 313.41C396.89 314.3 398.14 314.75 399.65 314.75ZM434.28 291.9C435.22 291.9 436.11 292.07 436.93 292.41C437.76 292.75 438.47 293.21 439.06 293.8C439.65 294.39 440.11 295.09 440.45 295.9C440.78 296.7 440.95 297.56 440.95 298.47C440.95 299.62 440.66 300.77 440.09 301.93C439.52 303.1 438.54 303.97 437.16 304.54C438.68 304.98 439.87 305.74 440.72 306.84C441.58 307.93 442.01 309.34 442.01 311.06C442.01 313.38 441.2 315.18 439.59 316.44C437.97 317.71 435.83 318.34 433.17 318.34L419.87 318.34L419.87 291.9L434.28 291.9ZM431.85 303.07C432.97 303.07 433.85 302.76 434.51 302.14C435.16 301.51 435.49 300.61 435.49 299.43C435.49 298.46 435.22 297.63 434.68 296.96C434.14 296.28 433.29 295.95 432.11 295.95L425.33 295.95L425.33 303.07L431.85 303.07ZM432.66 314.29C433.84 314.29 434.78 313.92 435.47 313.16C436.16 312.4 436.5 311.5 436.5 310.45C436.5 309.41 436.17 308.51 435.52 307.77C434.86 307.03 433.94 306.66 432.76 306.66L425.33 306.66L425.33 314.29L432.66 314.29ZM443.53 313.69C444.54 313.62 445.38 313.4 446.06 313.01C446.73 312.62 447.3 311.92 447.77 310.91C448.25 309.9 448.64 308.5 448.96 306.71C449.28 304.93 449.59 302.59 449.9 299.69L450.76 291.9L468.19 291.9L468.19 318.34L462.68 318.34L462.68 296.45L455.71 296.45L455.05 301.31C454.58 304.71 454.07 307.51 453.53 309.7C453 311.89 452.31 313.63 451.49 314.93C450.66 316.23 449.65 317.14 448.46 317.68C447.26 318.22 445.8 318.52 444.08 318.59L443.53 313.69ZM475.07 291.9L480.63 291.9L480.63 318.34L475.07 318.34L475.07 291.9ZM475.07 281.44L480.63 281.44L480.63 287.56L475.07 287.56L475.07 281.44ZM492.96 302.42L504.99 302.42L504.99 291.9L510.45 291.9L510.45 318.34L504.99 318.34L504.99 307.12L492.96 307.12L492.96 318.34L487.5 318.34L487.5 291.9L492.96 291.9L492.96 302.42ZM522.78 302.42L534.82 302.42L534.82 291.9L540.27 291.9L540.27 318.34L534.82 318.34L534.82 307.12L522.78 307.12L522.78 318.34L517.33 318.34L517.33 291.9L522.78 291.9L522.78 302.42ZM551.44 308.18C549.93 307.61 548.7 306.7 547.75 305.45C546.81 304.2 546.34 302.57 546.34 300.55C546.34 299.23 546.57 298.05 547.05 296.98C547.52 295.92 548.16 295.01 548.97 294.25C549.78 293.49 550.74 292.91 551.87 292.48C553 292.06 554.23 291.85 555.54 291.85L566.46 291.85L566.46 318.34L560.95 318.34L560.95 309.09L556.65 309.09L550.99 318.34L544.87 318.34L551.44 308.18ZM560.95 304.59L560.95 296.45L556.04 296.45C555.03 296.45 554.09 296.81 553.21 297.51C552.34 298.22 551.9 299.25 551.9 300.6C551.9 301.88 552.3 302.86 553.09 303.55C553.88 304.24 554.81 304.59 555.89 304.59L560.95 304.59ZM583.24 313.54L584.7 313.54C585.51 313.4 586.18 313.09 586.72 312.6C587.26 312.11 587.73 311.35 588.11 310.3C588.5 309.26 588.84 307.89 589.13 306.18C589.41 304.48 589.69 302.32 589.96 299.69L590.82 291.9L608.26 291.9L608.26 313.54L611.59 313.54L611.59 326.28L606.74 326.28L606.74 318.34L587.94 318.34L587.94 326.28L583.24 326.28L583.24 313.54ZM602.8 313.54L602.8 296.45L595.82 296.45L595.17 301.31C594.73 304.51 594.25 307.08 593.73 309.01C593.2 310.95 592.54 312.46 591.73 313.54L602.8 313.54ZM628.22 318.84C626.17 318.84 624.3 318.48 622.62 317.76C620.93 317.03 619.49 316.05 618.29 314.8C617.1 313.55 616.17 312.1 615.51 310.45C614.86 308.8 614.53 307.05 614.53 305.2C614.53 303.34 614.86 301.58 615.51 299.91C616.17 298.25 617.1 296.78 618.29 295.52C619.49 294.25 620.93 293.26 622.62 292.53C624.3 291.81 626.19 291.45 628.28 291.45C630.33 291.45 632.19 291.82 633.86 292.56C635.53 293.3 636.95 294.29 638.13 295.52C639.31 296.75 640.21 298.18 640.84 299.81C641.46 301.45 641.77 303.16 641.77 304.94C641.77 305.35 641.75 305.73 641.72 306.08C641.69 306.43 641.65 306.73 641.62 306.96L620.44 306.96C620.54 308.15 620.82 309.21 621.28 310.15C621.73 311.09 622.32 311.91 623.04 312.6C623.77 313.29 624.59 313.82 625.52 314.19C626.45 314.56 627.42 314.75 628.43 314.75C629.17 314.75 629.9 314.66 630.63 314.47C631.35 314.29 632.02 314.02 632.62 313.66C633.23 313.31 633.77 312.88 634.24 312.37C634.71 311.87 635.08 311.31 635.35 310.71L640.1 312.07C639.19 314.06 637.69 315.68 635.58 316.95C633.47 318.21 631.02 318.84 628.22 318.84ZM636.26 303.12C636.16 302.01 635.88 300.98 635.43 300.04C634.97 299.1 634.39 298.3 633.68 297.64C632.98 296.98 632.15 296.47 631.21 296.1C630.26 295.73 629.27 295.54 628.22 295.54C627.18 295.54 626.2 295.73 625.27 296.1C624.34 296.47 623.52 296.98 622.82 297.64C622.11 298.3 621.54 299.1 621.1 300.04C620.66 300.98 620.39 302.01 620.29 303.12L636.26 303.12ZM661.43 318.84C659.31 318.84 657.44 318.34 655.82 317.33C654.21 316.32 652.92 315 651.98 313.39L651.98 329.11L646.42 329.11L646.42 291.9L651.32 291.9L651.32 296.65C652.33 295.07 653.64 293.81 655.24 292.86C656.84 291.92 658.65 291.45 660.68 291.45C662.49 291.45 664.16 291.82 665.68 292.56C667.2 293.3 668.51 294.3 669.62 295.54C670.74 296.79 671.6 298.24 672.23 299.89C672.85 301.54 673.16 303.28 673.16 305.1C673.16 307.02 672.87 308.81 672.3 310.48C671.73 312.15 670.92 313.6 669.88 314.83C668.83 316.06 667.59 317.03 666.16 317.76C664.73 318.48 663.15 318.84 661.43 318.84ZM659.61 314.09C660.79 314.09 661.86 313.84 662.82 313.33C663.78 312.83 664.61 312.16 665.3 311.31C665.99 310.47 666.52 309.51 666.89 308.43C667.26 307.35 667.45 306.24 667.45 305.1C667.45 303.88 667.24 302.74 666.82 301.66C666.4 300.58 665.82 299.64 665.1 298.83C664.37 298.02 663.51 297.38 662.49 296.91C661.49 296.44 660.39 296.2 659.21 296.2C658.5 296.2 657.76 296.33 656.99 296.6C656.21 296.87 655.49 297.24 654.81 297.72C654.14 298.19 653.55 298.73 653.04 299.36C652.54 299.98 652.18 300.66 651.98 301.41L651.98 308.33C652.32 309.14 652.76 309.9 653.3 310.61C653.83 311.31 654.43 311.92 655.09 312.43C655.75 312.93 656.46 313.33 657.24 313.64C658.01 313.94 658.81 314.09 659.61 314.09ZM681.35 291.9L687.92 303.02L691.36 303.02L691.36 291.9L697.02 291.9L697.02 303.02L700.46 303.02L707.03 291.9L713.19 291.9L705.11 304.74L714 318.34L707.63 318.34L701.06 307.42L696.97 307.42L696.97 318.34L691.41 318.34L691.41 307.42L687.36 307.42L680.79 318.34L674.37 318.34L683.22 304.74L675.13 291.9L681.35 291.9ZM724.62 318.84C723.34 318.84 722.15 318.63 721.05 318.21C719.96 317.79 719.01 317.21 718.22 316.47C717.43 315.73 716.81 314.85 716.35 313.84C715.9 312.83 715.67 311.73 715.67 310.55C715.67 309.31 715.94 308.18 716.48 307.17C717.02 306.16 717.78 305.28 718.78 304.54C719.77 303.8 720.95 303.22 722.32 302.82C723.68 302.42 725.19 302.21 726.84 302.21C728.09 302.21 729.32 302.32 730.53 302.54C731.74 302.76 732.84 303.06 733.82 303.43L733.82 301.61C733.82 299.65 733.26 298.13 732.15 297.03C731.04 295.94 729.43 295.39 727.34 295.39C725.93 295.39 724.54 295.65 723.17 296.17C721.81 296.7 720.4 297.45 718.95 298.42L717.24 294.88C720.64 292.59 724.18 291.45 727.85 291.45C731.49 291.45 734.32 292.38 736.34 294.23C738.36 296.08 739.38 298.74 739.38 302.21L739.38 311.77C739.38 312.95 739.86 313.55 740.84 313.59L740.84 318.34C740.3 318.44 739.84 318.51 739.45 318.54C739.06 318.57 738.68 318.59 738.31 318.59C737.24 318.59 736.4 318.32 735.81 317.78C735.22 317.24 734.86 316.55 734.73 315.71L734.57 314.04C733.39 315.59 731.94 316.78 730.2 317.61C728.47 318.43 726.6 318.84 724.62 318.84ZM726.13 314.75C727.48 314.75 728.75 314.51 729.95 314.02C731.15 313.53 732.08 312.85 732.76 311.97C733.46 311.36 733.82 310.72 733.82 310.05L733.82 306.56C732.87 306.19 731.87 305.9 730.81 305.7C729.75 305.5 728.71 305.4 727.7 305.4C725.71 305.4 724.09 305.83 722.82 306.69C721.56 307.55 720.93 308.68 720.93 310.1C720.93 311.41 721.42 312.52 722.39 313.41C723.37 314.3 724.62 314.75 726.13 314.75ZM760.76 291.9C761.7 291.9 762.59 292.07 763.41 292.41C764.24 292.75 764.94 293.21 765.53 293.8C766.12 294.39 766.59 295.09 766.92 295.9C767.26 296.7 767.43 297.56 767.43 298.47C767.43 299.62 767.14 300.77 766.57 301.93C766 303.1 765.02 303.97 763.64 304.54C765.16 304.98 766.34 305.74 767.2 306.84C768.06 307.93 768.49 309.34 768.49 311.06C768.49 313.38 767.68 315.18 766.06 316.44C764.45 317.71 762.31 318.34 759.65 318.34L746.35 318.34L746.35 291.9L760.76 291.9ZM758.33 303.07C759.44 303.07 760.33 302.76 760.98 302.14C761.64 301.51 761.97 300.61 761.97 299.43C761.97 298.46 761.7 297.63 761.16 296.96C760.62 296.28 759.76 295.95 758.58 295.95L751.81 295.95L751.81 303.07L758.33 303.07ZM759.14 314.29C760.32 314.29 761.25 313.92 761.94 313.16C762.64 312.4 762.98 311.5 762.98 310.45C762.98 309.41 762.65 308.51 762 307.77C761.34 307.03 760.42 306.66 759.24 306.66L751.81 306.66L751.81 314.29L759.14 314.29ZM779.05 302.42L791.09 302.42L791.09 291.9L796.54 291.9L796.54 318.34L791.09 318.34L791.09 307.12L779.05 307.12L779.05 318.34L773.6 318.34L773.6 291.9L779.05 291.9L779.05 302.42ZM808.88 310.45L822.42 291.9L826.67 291.9L826.67 318.34L821.21 318.34L821.21 300.19L807.92 318.34L803.42 318.34L803.42 291.9L808.88 291.9L808.88 310.45ZM847.65 307.37L856.09 291.9L861.7 291.9L861.7 318.34L856.34 318.34L856.34 301L849.11 314.19L846.23 314.19L838.95 301L838.95 318.34L833.59 318.34L833.59 291.9L839.26 291.9L847.65 307.37ZM874.03 310.45L887.58 291.9L891.82 291.9L891.82 318.34L886.37 318.34L886.37 300.19L873.07 318.34L868.57 318.34L868.57 291.9L874.03 291.9L874.03 310.45ZM229.06 352.31C231.15 352.54 233.01 353.04 234.65 353.8C236.28 354.55 237.65 355.52 238.77 356.7C239.88 357.88 240.72 359.25 241.29 360.82C241.87 362.39 242.15 364.08 242.15 365.9C242.15 369.61 241.02 372.65 238.77 375.03C236.51 377.4 233.27 378.83 229.06 379.3L229.06 389.76L223.5 389.76L223.5 379.35C219.22 378.91 215.94 377.5 213.64 375.1C211.35 372.71 210.21 369.64 210.21 365.9C210.21 362.16 211.35 359.07 213.64 356.63C215.94 354.18 219.22 352.73 223.5 352.25L223.5 342.09L229.06 342.09L229.06 352.31ZM223.5 357.11C220.9 357.44 218.98 358.34 217.71 359.79C216.45 361.24 215.82 363.22 215.82 365.75C215.82 368.28 216.45 370.29 217.71 371.79C218.98 373.29 220.9 374.23 223.5 374.6L223.5 357.11ZM229.06 374.55C234.08 373.77 236.59 370.84 236.59 365.75C236.59 363.29 235.97 361.34 234.72 359.89C233.48 358.44 231.59 357.53 229.06 357.16L229.06 374.55ZM247.26 352.56L252.82 352.56L252.82 379L247.26 379L247.26 352.56ZM247.26 342.1L252.82 342.1L252.82 348.21L247.26 348.21L247.26 342.1ZM265.15 363.07L277.18 363.07L277.18 352.56L282.64 352.56L282.64 379L277.18 379L277.18 367.77L265.15 367.77L265.15 379L259.69 379L259.69 352.56L265.15 352.56L265.15 363.07Z" />
		<path id="Path 7" fill-rule="evenodd" class="shp0" d="M296.44 379.5C295.16 379.5 293.97 379.29 292.87 378.87C291.78 378.45 290.83 377.87 290.04 377.12C289.25 376.38 288.63 375.51 288.17 374.5C287.72 373.49 287.49 372.39 287.49 371.21C287.49 369.96 287.76 368.84 288.3 367.82C288.84 366.81 289.61 365.94 290.6 365.2C291.59 364.45 292.77 363.88 294.14 363.48C295.5 363.07 297.01 362.87 298.66 362.87C299.91 362.87 301.14 362.98 302.35 363.2C303.57 363.42 304.66 363.71 305.64 364.08L305.64 362.26C305.64 360.31 305.08 358.78 303.97 357.69C302.86 356.6 301.26 356.05 299.17 356.05C297.75 356.05 296.36 356.31 295 356.83C293.63 357.35 292.22 358.1 290.78 359.08L289.06 355.54C292.46 353.25 296 352.1 299.67 352.1C303.31 352.1 306.14 353.03 308.16 354.88C310.19 356.74 311.2 359.4 311.2 362.87L311.2 372.42C311.2 373.6 311.69 374.21 312.66 374.24L312.66 379C312.12 379.1 311.66 379.16 311.27 379.2C310.89 379.23 310.51 379.25 310.14 379.25C309.06 379.25 308.22 378.98 307.63 378.44C307.04 377.9 306.68 377.21 306.55 376.37L306.4 374.7C305.22 376.25 303.76 377.44 302.02 378.26C300.29 379.09 298.43 379.5 296.44 379.5ZM297.95 375.41C299.3 375.41 300.57 375.16 301.77 374.67C302.97 374.19 303.9 373.5 304.58 372.63C305.28 372.02 305.64 371.38 305.64 370.7L305.64 367.22C304.69 366.85 303.69 366.56 302.63 366.36C301.57 366.16 300.53 366.05 299.52 366.05C297.53 366.05 295.91 366.48 294.64 367.34C293.38 368.2 292.75 369.34 292.75 370.76C292.75 372.07 293.24 373.17 294.21 374.07C295.19 374.96 296.44 375.41 297.95 375.41ZM323.53 363.07L335.56 363.07L335.56 352.56L341.02 352.56L341.02 379L335.56 379L335.56 367.77L323.53 367.77L323.53 379L318.07 379L318.07 352.56L323.53 352.56L323.53 363.07ZM346.08 365.75C346.08 363.9 346.4 362.15 347.04 360.49C347.68 358.84 348.59 357.39 349.79 356.15C350.99 354.9 352.43 353.92 354.11 353.19C355.8 352.47 357.68 352.1 359.77 352.1C362.5 352.1 364.85 352.7 366.83 353.9C368.8 355.1 370.27 356.69 371.25 358.68L365.84 360.39C365.2 359.28 364.34 358.41 363.26 357.79C362.18 357.17 360.99 356.86 359.67 356.86C358.56 356.86 357.53 357.07 356.56 357.51C355.6 357.95 354.77 358.57 354.06 359.36C353.35 360.15 352.8 361.08 352.39 362.16C351.99 363.24 351.79 364.44 351.79 365.75C351.79 367.03 352 368.22 352.42 369.31C352.84 370.41 353.41 371.36 354.14 372.17C354.86 372.98 355.7 373.61 356.67 374.07C357.63 374.52 358.64 374.75 359.72 374.75C360.4 374.75 361.07 374.66 361.75 374.47C362.42 374.29 363.03 374.03 363.59 373.69C364.15 373.35 364.63 372.96 365.06 372.53C365.48 372.09 365.79 371.62 365.99 371.11L371.45 372.73C370.57 374.72 369.11 376.34 367.05 377.61C365 378.87 362.57 379.5 359.77 379.5C357.72 379.5 355.85 379.13 354.16 378.39C352.48 377.65 351.04 376.64 349.84 375.38C348.65 374.12 347.72 372.66 347.06 371.01C346.4 369.36 346.08 367.61 346.08 365.75ZM383.08 379.5C381.8 379.5 380.61 379.29 379.51 378.87C378.42 378.45 377.47 377.87 376.68 377.12C375.89 376.38 375.27 375.51 374.81 374.5C374.36 373.49 374.13 372.39 374.13 371.21C374.13 369.96 374.4 368.84 374.94 367.82C375.48 366.81 376.24 365.94 377.24 365.2C378.23 364.45 379.41 363.88 380.78 363.48C382.14 363.07 383.65 362.87 385.3 362.87C386.55 362.87 387.78 362.98 388.99 363.2C390.2 363.42 391.3 363.71 392.28 364.08L392.28 362.26C392.28 360.31 391.72 358.78 390.61 357.69C389.5 356.6 387.89 356.05 385.8 356.05C384.39 356.05 383 356.31 381.63 356.83C380.27 357.35 378.86 358.1 377.41 359.08L375.7 355.54C379.1 353.25 382.64 352.1 386.31 352.1C389.95 352.1 392.78 353.03 394.8 354.88C396.82 356.74 397.84 359.4 397.84 362.87L397.84 372.42C397.84 373.6 398.32 374.21 399.3 374.24L399.3 379C398.76 379.1 398.3 379.16 397.91 379.2C397.52 379.23 397.14 379.25 396.77 379.25C395.7 379.25 394.86 378.98 394.27 378.44C393.68 377.9 393.32 377.21 393.18 376.37L393.03 374.7C391.85 376.25 390.4 377.44 388.66 378.26C386.93 379.09 385.06 379.5 383.08 379.5ZM384.59 375.41C385.94 375.41 387.21 375.16 388.41 374.67C389.6 374.19 390.54 373.5 391.21 372.63C391.92 372.02 392.28 371.38 392.28 370.7L392.28 367.22C391.33 366.85 390.33 366.56 389.27 366.36C388.21 366.16 387.17 366.05 386.16 366.05C384.17 366.05 382.55 366.48 381.28 367.34C380.02 368.2 379.39 369.34 379.39 370.76C379.39 372.07 379.87 373.17 380.85 374.07C381.83 374.96 383.08 375.41 384.59 375.41ZM418.76 368.03L427.2 352.56L432.81 352.56L432.81 379L427.46 379L427.46 361.66L420.23 374.85L417.35 374.85L410.07 361.66L410.07 379L404.71 379L404.71 352.56L410.37 352.56L418.76 368.03ZM445.15 371.11L458.69 352.56L462.94 352.56L462.94 379L457.48 379L457.48 360.85L444.19 379L439.69 379L439.69 352.56L445.15 352.56L445.15 371.11ZM496.85 352.56C497.8 352.56 498.68 352.73 499.51 353.07C500.33 353.4 501.04 353.87 501.63 354.46C502.22 355.05 502.68 355.74 503.02 356.55C503.36 357.36 503.53 358.22 503.53 359.13C503.53 360.28 503.24 361.43 502.67 362.59C502.09 363.76 501.11 364.62 499.73 365.2C501.25 365.64 502.44 366.4 503.3 367.5C504.16 368.59 504.59 370 504.59 371.72C504.59 374.04 503.78 375.84 502.16 377.1C500.54 378.36 498.4 379 495.74 379L482.45 379L482.45 352.56L496.85 352.56ZM494.43 363.73C495.54 363.73 496.42 363.42 497.08 362.8C497.74 362.17 498.07 361.27 498.07 360.09C498.07 359.11 497.8 358.29 497.26 357.61C496.72 356.94 495.86 356.6 494.68 356.6L487.91 356.6L487.91 363.73L494.43 363.73ZM495.24 374.95C496.42 374.95 497.35 374.57 498.04 373.82C498.73 373.06 499.08 372.16 499.08 371.11C499.08 370.07 498.75 369.17 498.09 368.43C497.44 367.69 496.52 367.32 495.34 367.32L487.91 367.32L487.91 374.95L495.24 374.95ZM527.84 379.35C527.16 379.35 526.38 379.27 525.49 379.12C524.59 378.97 523.84 378.71 523.24 378.34L523.69 373.59C524.16 373.79 524.74 373.98 525.41 374.14C526.09 374.31 526.74 374.39 527.38 374.39C528.46 374.39 529.4 374.08 530.21 373.46C531.02 372.84 531.78 371.63 532.49 369.85L519.4 343.11L525.51 343.11L535.12 363.88L544.16 343.11L550.13 343.11L537.49 370.4C536.75 372.02 536.04 373.39 535.34 374.52C534.65 375.65 533.93 376.58 533.17 377.3C532.41 378.03 531.6 378.55 530.74 378.87C529.88 379.19 528.92 379.35 527.84 379.35ZM567.32 352.56L573.38 352.56L563.02 365.4L574.14 379L567.92 379L559.28 368.08L556.8 368.08L556.8 379L551.34 379L551.34 352.56L556.8 352.56L556.8 363.58L558.87 363.58L567.32 352.56ZM592.59 379.5C590.47 379.5 588.6 379 586.98 377.98C585.36 376.97 584.08 375.66 583.14 374.04L583.14 389.76L577.58 389.76L577.58 352.56L582.48 352.56L582.48 357.31C583.49 355.73 584.8 354.46 586.4 353.52C588 352.58 589.81 352.1 591.83 352.1C593.65 352.1 595.32 352.47 596.84 353.22C598.35 353.96 599.67 354.95 600.78 356.2C601.89 357.45 602.76 358.89 603.38 360.54C604 362.2 604.32 363.93 604.32 365.75C604.32 367.67 604.03 369.47 603.46 371.13C602.88 372.8 602.07 374.25 601.03 375.48C599.99 376.71 598.75 377.69 597.32 378.41C595.88 379.14 594.31 379.5 592.59 379.5ZM590.77 374.75C591.95 374.75 593.02 374.5 593.98 373.99C594.94 373.49 595.77 372.81 596.46 371.97C597.15 371.13 597.68 370.17 598.05 369.09C598.42 368.01 598.61 366.9 598.61 365.75C598.61 364.54 598.39 363.39 597.97 362.31C597.55 361.24 596.98 360.29 596.25 359.48C595.53 358.68 594.66 358.04 593.65 357.56C592.64 357.09 591.55 356.86 590.37 356.86C589.66 356.86 588.92 356.99 588.14 357.26C587.37 357.53 586.64 357.9 585.97 358.37C585.29 358.84 584.7 359.39 584.2 360.01C583.69 360.64 583.34 361.32 583.14 362.06L583.14 368.99C583.47 369.79 583.91 370.55 584.45 371.26C584.99 371.97 585.59 372.58 586.25 373.08C586.9 373.59 587.62 373.99 588.4 374.29C589.17 374.6 589.96 374.75 590.77 374.75ZM616.35 379.5C615.07 379.5 613.88 379.29 612.78 378.87C611.69 378.45 610.74 377.87 609.95 377.12C609.16 376.38 608.54 375.51 608.08 374.5C607.63 373.49 607.4 372.39 607.4 371.21C607.4 369.96 607.67 368.84 608.21 367.82C608.75 366.81 609.51 365.94 610.51 365.2C611.5 364.45 612.68 363.88 614.05 363.48C615.41 363.07 616.92 362.87 618.57 362.87C619.82 362.87 621.05 362.98 622.26 363.2C623.47 363.42 624.57 363.71 625.55 364.08L625.55 362.26C625.55 360.31 624.99 358.78 623.88 357.69C622.77 356.6 621.16 356.05 619.07 356.05C617.66 356.05 616.27 356.31 614.9 356.83C613.54 357.35 612.13 358.1 610.68 359.08L608.97 355.54C612.37 353.25 615.91 352.1 619.58 352.1C623.22 352.1 626.05 353.03 628.07 354.88C630.09 356.74 631.11 359.4 631.11 362.87L631.11 372.42C631.11 373.6 631.59 374.21 632.57 374.24L632.57 379C632.03 379.1 631.57 379.16 631.18 379.2C630.79 379.23 630.41 379.25 630.04 379.25C628.97 379.25 628.13 378.98 627.54 378.44C626.95 377.9 626.59 377.21 626.46 376.37L626.3 374.7C625.12 376.25 623.67 377.44 621.93 378.26C620.2 379.09 618.33 379.5 616.35 379.5ZM617.86 375.41C619.21 375.41 620.48 375.16 621.68 374.67C622.88 374.19 623.81 373.5 624.49 372.63C625.19 372.02 625.55 371.38 625.55 370.7L625.55 367.22C624.6 366.85 623.6 366.56 622.54 366.36C621.48 366.16 620.44 366.05 619.43 366.05C617.44 366.05 615.82 366.48 614.55 367.34C613.29 368.2 612.66 369.34 612.66 370.76C612.66 372.07 613.15 373.17 614.12 374.07C615.1 374.96 616.35 375.41 617.86 375.41ZM642.93 342.35L647.58 342.35L647.58 347.91L642.93 347.91L642.93 342.35ZM637.98 352.56L643.54 352.56L643.54 379L637.98 379L637.98 352.56ZM633.99 342.35L638.64 342.35L638.64 347.91L633.99 347.91L633.99 342.35ZM655.87 363.07L667.9 363.07L667.9 352.56L673.36 352.56L673.36 379L667.9 379L667.9 367.77L655.87 367.77L655.87 379L650.41 379L650.41 352.56L655.87 352.56L655.87 363.07ZM680.24 352.56L685.8 352.56L685.8 379L680.24 379L680.24 352.56ZM680.24 342.1L685.8 342.1L685.8 348.21L680.24 348.21L680.24 342.1Z" />
	</g>
</svg>